<svg id="b465a16a-1202-4755-ab2a-5eeee67c4d89" data-name="Layer 1" xmlns="http://www.w3.org/2000/svg" width="215" height="702" viewBox="0 0 215 702" fill="#3f3d56"><title>pay_online</title>

<circle cx="107.3622" cy="464.88438" r="100" fill="#3f3d56"/>
<circle cx="107.3622" cy="464.88438" r="86" opacity="0.1"/>

<path d="M274.24154,604.62862V592.11155c-6.32734-.12344-12.87306-2.355-16.69109-5.45315l2.618-8.30316a26.68127,26.68127,0,0,0,15.70942,5.3285c7.74578,0,12.98225-5.081,12.98225-12.14493,0-6.81644-4.2548-11.02974-12.32763-14.74807-11.12757-4.957-18.00034-10.6582-18.00034-21.43985,0-10.28667,6.43653-18.09425,16.47324-19.95312V502.88071h6.76357V514.9022a26.54268,26.54268,0,0,1,14.18232,4.33734l-2.7277,8.17972a24.10675,24.10675,0,0,0-13.74554-4.2139c-8.39987,0-11.56381,5.70063-11.56381,10.6582,0,6.4443,4.03641,9.66645,13.52769,14.12845,11.23623,5.205,16.90947,11.64935,16.90947,22.67909,0,9.79049-6.00029,18.962-17.23705,21.06771v12.88981Z" transform="translate(-171.00024 -88.99633)" fill="#6c63ff"/>

<path d="M384.00024,757.28868a722.02568,722.02568,0,0,1-213,0v-24a802.32929,802.32929,0,0,0,213,0Z" transform="translate(-171.00024 -88.99633)" fill="#3f3d56"/>

<path d="M384.00024,720.28868a722.02568,722.02568,0,0,1-213,0v-24a802.32929,802.32929,0,0,0,213,0Z" transform="translate(-171.00024 -88.99633)" fill="#3f3d56"/>

<path d="M384.00024,683.28868a722.02568,722.02568,0,0,1-213,0v-24a802.32929,802.32929,0,0,0,213,0Z" transform="translate(-171.00024 -88.99633)" fill="#3f3d56"/>


</svg>