<svg width="379" height="76" viewBox="0 0 379 76" fill="none" xmlns="http://www.w3.org/2000/svg">
<path d="M117.969 61.5312C123.031 61.5312 126.438 59.25 127.625 55.0625H128.281V61H137.094V13.4062H128.156V32.4062H127.531C126.375 28.2812 122.938 25.9688 117.969 25.9688C110.094 25.9688 105.406 31.4062 105.406 40.7812V46.7188C105.406 56.0938 110.094 61.5312 117.969 61.5312ZM121.281 54.125C116.844 54.125 114.125 51.2188 114.125 46.4688V40.7812C114.125 36.0312 116.844 33.1562 121.281 33.1562C125.688 33.1562 128.375 36.0312 128.375 40.7812V46.4688C128.375 51.2188 125.688 54.125 121.281 54.125ZM156.688 61.5625C161.188 61.5625 164.812 59.6562 166.5 56.4062H167.25V61H175.375V37.625C175.375 30.0938 170.406 25.875 161.562 25.875C153.375 25.875 147.719 29.9062 147.094 36.1562H155.406C156.125 34 158.344 32.6875 161.312 32.6875C164.844 32.6875 166.906 34.4375 166.906 37.4375V40.1875L158.844 40.6875C150.344 41.2812 145.812 44.9375 145.812 51.1562C145.812 57.375 150.188 61.5625 156.688 61.5625ZM159.625 54.7188C156.312 54.7188 154.25 53.0938 154.25 50.5312C154.25 47.875 156.281 46.3438 160.281 46.0938L166.906 45.6875V48.1875C166.906 52.0312 163.875 54.7188 159.625 54.7188ZM200.906 61.75C210.625 61.75 216.75 55.8438 216.75 46.4375V41.125C216.75 31.7188 210.625 25.8125 200.906 25.8125C191.188 25.8125 185.062 31.7188 185.062 41.125V46.4375C185.062 55.8438 191.188 61.75 200.906 61.75ZM200.906 32.8125C205.5 32.8125 208.344 36.125 208.344 41.4688V46.0938C208.344 51.4062 205.5 54.75 200.906 54.75C196.312 54.75 193.469 51.4062 193.469 46.0938V41.4688C193.469 36.125 196.312 32.8125 200.906 32.8125ZM255.688 61V54.1875H245.406V13.4062H226.469V20.2188H236.844V54.1875H225.906V61H255.688ZM280.531 19.5C284.031 19.5 286.406 17.3438 286.406 14.0938C286.406 10.8438 284.031 8.6875 280.531 8.6875C277.031 8.6875 274.688 10.8438 274.688 14.0938C274.688 17.3438 277.031 19.5 280.531 19.5ZM295.25 61V54.1875H284.844V26.5312H266.031V33.375H276.531V54.1875H265.469V61H295.25ZM305.656 36.5938C305.656 41.9062 308.938 45.2812 315.406 46.6875L320.562 47.7812C324.188 48.5625 325.5 49.5 325.5 51.4375C325.5 53.6875 323.25 55.1562 319.75 55.1562C316.188 55.1562 313.875 53.8438 313.344 51.4688H304.906C305.375 57.9375 310.812 61.7188 319.625 61.7188C328.594 61.7188 334.281 57.3125 334.281 50.3438C334.281 45.0938 331.188 42.125 324.219 40.6875L318.875 39.5938C315.531 38.9062 314.094 37.7812 314.094 35.9062C314.094 33.7188 316.25 32.25 319.5 32.25C322.688 32.25 324.938 33.6562 325.344 35.9375H333.406C333 29.4688 327.906 25.7188 319.562 25.7188C311.031 25.7188 305.656 29.9062 305.656 36.5938ZM352.031 16.6875V26.875H343.062V33.7188H352.031V50.0938C352.031 58.0938 355.625 61.0625 365 61.0625C365.688 61.0625 372.5 61 372.844 60.9375V54.1875C372.469 54.2188 366.5 54.25 365.688 54.25C362.406 54.25 360.562 52.7812 360.562 50.1875V33.7188H373.25V26.875H360.406V16.6875H352.031Z" fill="#CC7C2E"/>
<mask id="path-2-outside-1" maskUnits="userSpaceOnUse" x="0" y="35" width="72" height="40" fill="black">
<rect fill="white" y="35" width="72" height="40"/>
<path d="M68 39C68 47.4869 64.6286 55.6263 58.6274 61.6274C52.6263 67.6286 44.4869 71 36 71C27.5131 71 19.3737 67.6286 13.3726 61.6274C7.37142 55.6263 4 47.4869 4 39L36 39H68Z"/>
</mask>
<path d="M68 39C68 47.4869 64.6286 55.6263 58.6274 61.6274C52.6263 67.6286 44.4869 71 36 71C27.5131 71 19.3737 67.6286 13.3726 61.6274C7.37142 55.6263 4 47.4869 4 39L36 39H68Z" fill="#CC7C2E"/>
<path d="M68 39C68 47.4869 64.6286 55.6263 58.6274 61.6274C52.6263 67.6286 44.4869 71 36 71C27.5131 71 19.3737 67.6286 13.3726 61.6274C7.37142 55.6263 4 47.4869 4 39L36 39H68Z" stroke="#CC7C2E" stroke-width="8" mask="url(#path-2-outside-1)"/>
<mask id="path-3-outside-2" maskUnits="userSpaceOnUse" x="0" y="3" width="72" height="40" fill="black">
<rect fill="white" y="3" width="72" height="40"/>
<path d="M4 39C4 30.5131 7.37142 22.3737 13.3726 16.3726C19.3737 10.3714 27.5131 7 36 7C44.4869 7 52.6263 10.3714 58.6274 16.3726C64.6286 22.3737 68 30.5131 68 39L36 39H4Z"/>
</mask>
<path d="M4 39C4 30.5131 7.37142 22.3737 13.3726 16.3726C19.3737 10.3714 27.5131 7 36 7C44.4869 7 52.6263 10.3714 58.6274 16.3726C64.6286 22.3737 68 30.5131 68 39L36 39H4Z" fill="white"/>
<path d="M4 39C4 30.5131 7.37142 22.3737 13.3726 16.3726C19.3737 10.3714 27.5131 7 36 7C44.4869 7 52.6263 10.3714 58.6274 16.3726C64.6286 22.3737 68 30.5131 68 39L36 39H4Z" stroke="#CC7C2E" stroke-width="8" mask="url(#path-3-outside-2)"/>
<path d="M68 39C68 34.7565 66.3143 30.6869 63.3137 27.6863C60.3131 24.6857 56.2435 23 52 23C47.7565 23 43.6869 24.6857 40.6863 27.6863C37.6857 30.6869 36 34.7565 36 39H52L68 39Z" fill="#CC7C2E"/>
<path d="M4 39C4 43.2435 5.68571 47.3131 8.68629 50.3137C11.6869 53.3143 15.7565 55 20 55C24.2435 55 28.3131 53.3143 31.3137 50.3137C34.3143 47.3131 36 43.2435 36 39H20L4 39Z" fill="white"/>
</svg>
